# xmcd CD database file
# Copyright (C) 1997 Ti Kan
# 
# Track frame offsets:
#     150
#     11642
#     22790
#     33150
#     44930
#     57465
#     74180
#     84320
#     95597
#     115337
#     128052
#     139485
#     152625
#     166045
# 
# Disc length: 2367 seconds
# 
# Revision: 1
# Processed by: cddbd v1.4b41PL1 Copyright (c) Steve Scherf et al.
# Submitted via: DiscPlay 4.0.4
# 
DISCID=bf093d0e
DTITLE=John Lee Hooker - King Of The Boogie
DYEAR=1900
DGENRE=
TTITLE0=Boom Boom
TTITLE1=Good Rockin' Mama
TTITLE2=Big Legs Tight Skirt
TTITLE3=Boogie Chillun
TTITLE4=Crawlin' King Snake
TTITLE5=Mama You Got A Daughter
TTITLE6=Dimples
TTITLE7=What Do You Say
TTITLE8=House Rent Boogie
TTITLE9=Hobo Blues
TTITLE10=Hard-Headed Woman
TTITLE11=I Like To See You Walk
TTITLE12=Baby Lee
TTITLE13=Will The Circle Be Unbroken
EXTD=
EXTT0=
EXTT1=
EXTT2=
EXTT3=
EXTT4=
EXTT5=
EXTT6=
EXTT7=
EXTT8=
EXTT9=
EXTT10=
EXTT11=
EXTT12=
EXTT13=
PLAYORDER=
